<svg xmlns="http://www.w3.org/2000/svg" width="109.355" height="65.811" viewBox="0 0 109.355 65.811">
  <g id="Group_646" data-name="Group 646" transform="translate(0 0)">
    <path id="Path_201" data-name="Path 201" d="M1376.95,1421.817h2.734v8.143h4.894v2.352h-7.628Z" transform="translate(-1350.5 -1393.243)" fill="#fff"/>
    <path id="Path_202" data-name="Path 202" d="M1391.113,1421.817h8.364v2.191h-5.63v1.838h5.144v2.116h-5.144v2h5.776v2.352h-8.51Z" transform="translate(-1356.565 -1393.243)" fill="#fff"/>
    <path id="Path_203" data-name="Path 203" d="M1409.223,1421.817H1412l3.924,10.5h-2.851l-.647-1.882h-3.66l-.662,1.882H1405.3Zm.176,6.585h2.381l-1.161-3.674h-.028Z" transform="translate(-1362.639 -1393.243)" fill="#fff"/>
    <path id="Path_204" data-name="Path 204" d="M1433.117,1432.147h-1.764l-.162-1.146a3.578,3.578,0,0,1-2.925,1.366,5.473,5.473,0,0,1,0-10.936c2.175,0,4.5,1.161,4.748,3.792h-2.734c-.088-.9-.97-1.44-2.072-1.44-1.764,0-2.441,1.558-2.441,3.116s.677,3.117,2.441,3.117c1.352,0,2.263-.633,2.41-1.588h-1.91V1426.4h4.409Z" transform="translate(-1370.234 -1393.078)" fill="#fff"/>
    <path id="Path_205" data-name="Path 205" d="M1451.2,1427.976c0,3.043-1.4,4.557-4.571,4.557s-4.572-1.514-4.572-4.557v-6.159h2.735v6.321c0,1.352.5,2.044,1.837,2.044s1.837-.691,1.837-2.044v-6.321h2.734Z" transform="translate(-1378.378 -1393.243)" fill="#fff"/>
    <path id="Path_206" data-name="Path 206" d="M1459.684,1421.817h8.364v2.191h-5.63v1.838h5.145v2.116h-5.145v2h5.776v2.352h-8.511Z" transform="translate(-1385.928 -1393.243)" fill="#fff"/>
    <path id="Path_207" data-name="Path 207" d="M1391.031,1398.319h2.734v8.143h4.894v2.352h-7.628Z" transform="translate(-1356.53 -1383.181)" fill="#fff"/>
    <path id="Path_208" data-name="Path 208" d="M1405.192,1398.319h8.364v2.19h-5.63v1.838h5.144v2.117h-5.144v2h5.777v2.352h-8.511Z" transform="translate(-1362.594 -1383.181)" fill="#fff"/>
    <path id="Path_209" data-name="Path 209" d="M1430.645,1408.648h-1.764l-.161-1.146a3.58,3.58,0,0,1-2.925,1.368,5.474,5.474,0,0,1,0-10.937c2.175,0,4.5,1.162,4.747,3.793h-2.734c-.088-.9-.969-1.44-2.073-1.44-1.764,0-2.44,1.557-2.44,3.115s.676,3.117,2.44,3.117c1.352,0,2.264-.632,2.411-1.588h-1.911V1402.9h4.409Z" transform="translate(-1369.176 -1383.015)" fill="#fff"/>
    <path id="Path_210" data-name="Path 210" d="M1444.19,1397.932c3.307,0,5.175,2.426,5.175,5.469s-1.867,5.468-5.175,5.468-5.174-2.426-5.174-5.468,1.866-5.469,5.174-5.469m0,8.585c1.764,0,2.44-1.558,2.44-3.116s-.676-3.116-2.44-3.116-2.44,1.558-2.44,3.116.676,3.116,2.44,3.116" transform="translate(-1377.077 -1383.015)" fill="#fff"/>
    <path id="Path_211" data-name="Path 211" d="M1457.844,1398.375a1.058,1.058,0,1,1,0,2.115,1.058,1.058,0,0,1,0-2.115m0,1.984a.927.927,0,1,0-.925-.928.925.925,0,0,0,.925.928m-.41-1.47c.054,0,.062-.007.169-.016s.151-.012.2-.012c.348,0,.52.135.52.393a.29.29,0,0,1-.2.3l-.017,0c.013.008.017.012.021.021a3.162,3.162,0,0,1,.262.385h-.4c-.082-.152-.107-.192-.208-.364v.364h-.34Zm.381.508c.094,0,.147-.045.147-.13s-.05-.127-.144-.127a.176.176,0,0,0-.045,0v.249a.127.127,0,0,0,.041,0" transform="translate(-1384.688 -1383.205)" fill="#fff"/>
    <path id="Path_212" data-name="Path 212" d="M1386.018,1372.259h8.4l-.79,3.233H1389.6l-.4,1.7h4.2l-.731,3h-4.143l-.995,4.256h-4.337Z" transform="translate(-1353.173 -1372.022)" fill="#fff"/>
    <path id="Path_213" data-name="Path 213" d="M1402.7,1372.259h4.337l-2.825,12.182h-4.337Z" transform="translate(-1360.315 -1372.022)" fill="#fff"/>
    <path id="Path_214" data-name="Path 214" d="M1412.281,1372.154l.279-.037c1.392-.164,3.123-.273,4.078-.273a10.051,10.051,0,0,1,3.76.566,3.019,3.019,0,0,1,1.91,2.867,4.533,4.533,0,0,1-1.094,3,4.261,4.261,0,0,1-2.328,1.406l-.279.092a2.653,2.653,0,0,1,.22.182,28.666,28.666,0,0,1,2.208,4.31h-4.775c-.616-1.735-.8-2.192-1.611-4.164l-.955,4.164h-4.218Zm3.2,5.734a2.109,2.109,0,0,0,2.367-1.99c0-.621-.457-.932-1.353-.932a2.976,2.976,0,0,0-.676.073l-.657,2.813a1.657,1.657,0,0,0,.318.037" transform="translate(-1364.428 -1371.844)" fill="#fff"/>
    <path id="Path_215" data-name="Path 215" d="M1449.13,1372.259h10.523l-.734,3.526h-3.123l-2.069,8.656h-4.337l2.068-8.656h-3.385Z" transform="translate(-1380.956 -1372.022)" fill="#fff"/>
    <path id="Path_216" data-name="Path 216" d="M1460.719,1389.757a1.057,1.057,0,1,1,0,2.115,1.057,1.057,0,0,1,0-2.115m0,1.983a.926.926,0,1,0-.924-.928.924.924,0,0,0,.924.928m-.409-1.468c.053,0,.061-.008.167-.016s.152-.013.2-.013c.348,0,.52.135.52.393a.289.289,0,0,1-.2.3l-.016,0c.012.009.016.012.02.02a3.01,3.01,0,0,1,.261.384h-.4c-.082-.151-.106-.192-.209-.364v.364h-.339Zm.38.507c.094,0,.147-.045.147-.131s-.049-.127-.143-.127a.166.166,0,0,0-.045,0v.25a.142.142,0,0,0,.041,0" transform="translate(-1385.919 -1379.515)" fill="#fff"/>
    <path id="Path_217" data-name="Path 217" d="M1430.436,1383.953a13.631,13.631,0,0,0,3.8.566,6.664,6.664,0,0,0,4.1-1.187,4.533,4.533,0,0,0,2.03-3.452,2.7,2.7,0,0,0-.995-2.1,9.269,9.269,0,0,0-2.069-1.2l-.855-.4c-.279-.146-.418-.293-.418-.457,0-.439.557-.767,1.312-.767a8.64,8.64,0,0,1,2.529.585l.889-3.3a10.77,10.77,0,0,0-2.84-.392c-3.541,0-6.267,1.935-6.267,4.438,0,1.315.876,2.247,3.064,3.269,1.034.475,1.213.6,1.213.932,0,.493-.537.8-1.412.8a9.649,9.649,0,0,1-3.123-.731h0Z" transform="translate(-1373.403 -1371.844)" fill="#fff"/>
    <g id="Group_645" data-name="Group 645" transform="translate(0 44.19)">
      <path id="Path_218" data-name="Path 218" d="M1436.444,1449.129h-102.15a3.6,3.6,0,0,0-3.6,3.6v14.415a3.6,3.6,0,0,0,3.6,3.6h102.15a3.6,3.6,0,0,0,3.6-3.6v-14.415A3.6,3.6,0,0,0,1436.444,1449.129Zm-88.139,8.061a.975.975,0,0,1-.129.394.931.931,0,0,1-.281.3.943.943,0,0,1-.4.153.846.846,0,0,1-.571-.081,1.008,1.008,0,0,1-.322-.322c-.081-.128-.158-.254-.233-.377a.634.634,0,0,0-.321-.266.833.833,0,0,0-.193.017,7.111,7.111,0,0,0-1.1.393,5.48,5.48,0,0,0-1.03.6,4.143,4.143,0,0,0-.828.821,3.063,3.063,0,0,0-.515,1.045,4.129,4.129,0,0,0-.145,1.4,3.258,3.258,0,0,0,.386,1.335,2.135,2.135,0,0,0,.514.643,2.234,2.234,0,0,0,.709.41,1.794,1.794,0,0,0,.787.1,1.708,1.708,0,0,0,.772-.282,2.718,2.718,0,0,0,.58-.555,7.692,7.692,0,0,0,.465-.668.986.986,0,0,1,.587-.3,1.085,1.085,0,0,1,.6.088.933.933,0,0,1,.427.41.958.958,0,0,1,.072.667,1.8,1.8,0,0,1-.37.716q-.273.33-.547.6a4.032,4.032,0,0,1-1.391.973,3.838,3.838,0,0,1-1.544.3,3.72,3.72,0,0,1-1.528-.37,3.966,3.966,0,0,1-1.343-1.061,4.774,4.774,0,0,1-.6-.884,4.552,4.552,0,0,1-.369-.981,5.868,5.868,0,0,1-.177-1.576,5.685,5.685,0,0,1,.258-1.592,5.893,5.893,0,0,1,.683-1.456,4.522,4.522,0,0,1,1.085-1.166,7.49,7.49,0,0,1,.942-.611q.473-.257,1.005-.483c.2-.085.412-.168.627-.249a4.079,4.079,0,0,1,.66-.185,2.887,2.887,0,0,1,.675-.048,2.029,2.029,0,0,1,.66.145,2.2,2.2,0,0,1,.451.265,2.862,2.862,0,0,1,.417.386,2.949,2.949,0,0,1,.338.459,1.913,1.913,0,0,1,.209.466A1.239,1.239,0,0,1,1348.3,1457.19Zm10.631,4.037a.876.876,0,0,1-.563.362v2.8a1.294,1.294,0,0,1-.2.715,1.133,1.133,0,0,1-.49.442.952.952,0,0,1-.612.056,1,1,0,0,1-.579-.426.944.944,0,0,1-.153-.37,2.048,2.048,0,0,1-.041-.386v-2.782h-3.747v2.734a2.125,2.125,0,0,1-.032.363,1.057,1.057,0,0,1-.113.329.989.989,0,0,1-.531.5.873.873,0,0,1-.627-.008,1.18,1.18,0,0,1-.523-.418,1.213,1.213,0,0,1-.217-.732v-8.316a1.107,1.107,0,0,1,.249-.724,1.34,1.34,0,0,1,.571-.426.97.97,0,0,1,.651-.016.793.793,0,0,1,.49.507,1.137,1.137,0,0,1,.065.233,1.584,1.584,0,0,1,.016.233v3.635h3.747v-3.442a1.357,1.357,0,0,1,.145-.611,1.015,1.015,0,0,1,.507-.5,1.049,1.049,0,0,1,.644-.081,1.016,1.016,0,0,1,.547.314.96.96,0,0,1,.233.683v3.7a.986.986,0,0,1,.579.41,1.072,1.072,0,0,1,.185.619A1.1,1.1,0,0,1,1358.935,1461.227Zm11.243.281a1.016,1.016,0,0,1-.29.419,1.087,1.087,0,0,1-.49.241q.16.563.281,1.15c.081.392.147.785.2,1.182v.112a1.238,1.238,0,0,1-.242.6,1.028,1.028,0,0,1-.442.346.847.847,0,0,1-.531.024,1,1,0,0,1-.523-.377,1.009,1.009,0,0,1-.233-.571,4.807,4.807,0,0,0-.089-.62,13.66,13.66,0,0,0-.465-1.817q-1,.016-1.979.016t-1.963.016c-.1.279-.18.563-.249.853s-.137.574-.2.852c-.053.214-.1.437-.145.667a1.249,1.249,0,0,1-.29.6.943.943,0,0,1-.587.361.872.872,0,0,1-.563-.1,1.051,1.051,0,0,1-.4-.443,1.142,1.142,0,0,1-.1-.684,5.109,5.109,0,0,1,.193-.981q.144-.483.273-.965a35.566,35.566,0,0,1,1.867-5.357c.064-.149.131-.295.2-.434s.137-.278.2-.418.15-.311.225-.483a2.7,2.7,0,0,1,.266-.475,1.569,1.569,0,0,1,.362-.37.848.848,0,0,1,.514-.153.948.948,0,0,1,.676.257,9.831,9.831,0,0,1,1.8,2.469,30.686,30.686,0,0,1,1.271,2.807q.338-.016.66,0a.839.839,0,0,1,.579.289.873.873,0,0,1,.265.482A.984.984,0,0,1,1370.178,1461.509Zm8.822,3.547a1.242,1.242,0,0,1-.619.378,1.825,1.825,0,0,1-.451.057q-.289.008-.8.008h-1.3q-.789,0-1.946.016c-.194.01-.392.016-.6.016a.755.755,0,0,1-.531-.209.932.932,0,0,1-.281-.491,3.524,3.524,0,0,1-.113-.691q-.024-.362-.016-.724c.005-.241.007-.443.007-.6q0-.483.009-1.11t.016-1.279q.008-.651.009-1.278v-1.11c0-.568,0-1.027.016-1.375a5.391,5.391,0,0,1,.072-.82.859.859,0,0,1,.185-.435,1.045,1.045,0,0,1,.354-.233.863.863,0,0,1,.426-.056,1.2,1.2,0,0,1,.435.129.983.983,0,0,1,.338.289.677.677,0,0,1,.137.411q.032,1.93,0,3.828t-.032,3.8q1.013,0,2.019-.025t2.035-.056l.1.032a1.424,1.424,0,0,1,.564.45.909.909,0,0,1,.184.555A.868.868,0,0,1,1379,1465.055Zm9.175,0a1.242,1.242,0,0,1-.619.378,1.829,1.829,0,0,1-.451.057q-.289.008-.8.008H1385q-.787,0-1.946.016c-.193.01-.391.016-.6.016a.755.755,0,0,1-.531-.209.93.93,0,0,1-.281-.491,3.533,3.533,0,0,1-.113-.691q-.024-.362-.016-.724c.006-.241.008-.443.008-.6q0-.483.008-1.11t.016-1.279q.009-.651.009-1.278v-1.11c0-.568,0-1.027.016-1.375a5.284,5.284,0,0,1,.073-.82.853.853,0,0,1,.185-.435,1.043,1.043,0,0,1,.353-.233.866.866,0,0,1,.427-.056,1.2,1.2,0,0,1,.435.129.988.988,0,0,1,.338.289.677.677,0,0,1,.136.411q.032,1.93,0,3.828t-.032,3.8q1.014,0,2.019-.025t2.035-.056l.1.032a1.421,1.421,0,0,1,.563.45.912.912,0,0,1,.184.555A.87.87,0,0,1,1388.175,1465.055Zm5.9-5.638q.579-.032,1.159-.081c.17-.01.343-.026.515-.048a2.229,2.229,0,0,1,.531,0,.809.809,0,0,1,.547.29,1.083,1.083,0,0,1,.233.538.987.987,0,0,1-.1.587.854.854,0,0,1-.467.418,2.9,2.9,0,0,1-.739.168q-.467.057-.981.081c-.343.017-.681.024-1.013.024s-.612-.005-.837-.016v1.978a8.266,8.266,0,0,0,1.785.033,10.87,10.87,0,0,0,1.77-.306h.113a1.04,1.04,0,0,1,.506.153,1.244,1.244,0,0,1,.355.33.9.9,0,0,1,.16.443.912.912,0,0,1-.1.507.932.932,0,0,1-.2.265.652.652,0,0,1-.282.185,9.65,9.65,0,0,1-2.115.378,12.44,12.44,0,0,1-2.147-.04c-.2-.022-.426-.043-.668-.064a1.373,1.373,0,0,1-.635-.209,1.029,1.029,0,0,1-.5-.917v-6.852a1.059,1.059,0,0,1-.426-.732.848.848,0,0,1,.057-.418.8.8,0,0,1,.273-.346,1.754,1.754,0,0,1,.741-.345c.278-.059.552-.11.82-.153a10.968,10.968,0,0,1,1.672-.129q.836,0,1.705-.016a5.065,5.065,0,0,0,.6-.04,1.247,1.247,0,0,1,.595.056,1.018,1.018,0,0,1,.483.354,1.073,1.073,0,0,1,.209.515.886.886,0,0,1-.1.531.917.917,0,0,1-.474.4,2.1,2.1,0,0,1-.861.145q-.459-.016-.876-.016-.611,0-1.223.016a11.718,11.718,0,0,0-1.222.1v2.236A10.406,10.406,0,0,0,1394.078,1459.418Zm14.653.732q-.057,2.293-.185,4.593a.738.738,0,0,1-.233.579,1.085,1.085,0,0,1-.531.265,1.074,1.074,0,0,1-.6-.064.827.827,0,0,1-.451-.41.047.047,0,0,1-.016-.032v.032q-1.044-1.721-2.2-3.3t-2.414-3.145v4.873q0,.5-.016.813t-.04.491a1.392,1.392,0,0,1-.072.306.845.845,0,0,1-.442.515.983.983,0,0,1-.6.065.959.959,0,0,1-.531-.322.94.94,0,0,1-.225-.643v-4.488q0-.675-.008-1.262t-.009-.989q0-.547-.016-1.086t0-1.086a.784.784,0,0,1,.137-.467.923.923,0,0,1,.345-.3,1.164,1.164,0,0,1,.451-.121,1.143,1.143,0,0,1,.467.064,1.055,1.055,0,0,1,.395.265c.133.134.265.28.394.435s.249.311.362.466.206.281.281.378q.418.515.965,1.182t1.013,1.262q.467.612.909,1.223t.86,1.223q.048-1.464.064-2.911t.016-2.912l.017-.1a1.194,1.194,0,0,1,.313-.531,1.041,1.041,0,0,1,.474-.273.88.88,0,0,1,.523.032.948.948,0,0,1,.458.386,1.132,1.132,0,0,1,.121.193.461.461,0,0,1,.057.209Q1408.786,1457.858,1408.73,1460.149Zm11.556.531a1.038,1.038,0,0,1-.442.475,1.065,1.065,0,0,0-.016.393c.01.231.018.5.023.8s0,.6-.023.909a2.256,2.256,0,0,1-.145.715,1.569,1.569,0,0,1-.273.37c-.108.107-.22.209-.338.306a4.581,4.581,0,0,1-1.271.764,4.639,4.639,0,0,1-1.383.314,4.3,4.3,0,0,1-1.423-.145,4.994,4.994,0,0,1-1.376-.611,4.811,4.811,0,0,1-1.407-1.368,5.807,5.807,0,0,1-.909-4.4,5.138,5.138,0,0,1,.419-1.247,4.515,4.515,0,0,1,1.906-2.01,11.054,11.054,0,0,1,1.375-.644,5.923,5.923,0,0,1,1.126-.337,4.8,4.8,0,0,1,1.174-.081,6.424,6.424,0,0,1,.974.153,2.139,2.139,0,0,1,.893.426,1.283,1.283,0,0,1,.3.354,1.1,1.1,0,0,1,.145.427.862.862,0,0,1-.057.418.874.874,0,0,1-.29.362.864.864,0,0,1-.442.185,1.424,1.424,0,0,1-.474-.032,3.351,3.351,0,0,1-.483-.153c-.161-.065-.311-.118-.45-.161a.987.987,0,0,0-.378-.056,3.248,3.248,0,0,0-.394.04,10.924,10.924,0,0,0-1.134.394,5.331,5.331,0,0,0-1.054.571,3.557,3.557,0,0,0-.828.8,2.432,2.432,0,0,0-.442,1.126,3.987,3.987,0,0,0,.079,1.632,3.27,3.27,0,0,0,.773,1.423,2.994,2.994,0,0,0,.86.652,2.777,2.777,0,0,0,1.022.3,2.653,2.653,0,0,0,1.045-.112,2.223,2.223,0,0,0,.917-.563v-1.737c-.215.011-.437.03-.668.057s-.46.042-.691.048a3.548,3.548,0,0,1-.676-.048,1.957,1.957,0,0,1-.619-.218.853.853,0,0,1-.378-.426.962.962,0,0,1-.056-.531,1.115,1.115,0,0,1,.225-.491.876.876,0,0,1,.483-.305,2.17,2.17,0,0,1,.361-.041q.218-.008.435-.008c.145,0,.276,0,.394.008s.209.009.273.009q.628,0,1.246-.016c.413-.01.834-.016,1.264-.016a1.325,1.325,0,0,1,.547.314,1.047,1.047,0,0,1,.3.482A.829.829,0,0,1,1420.287,1460.681Zm5.87-1.263q.579-.032,1.158-.081c.17-.01.343-.026.515-.048a2.229,2.229,0,0,1,.531,0,.81.81,0,0,1,.547.29,1.082,1.082,0,0,1,.233.538.987.987,0,0,1-.1.587.853.853,0,0,1-.467.418,2.905,2.905,0,0,1-.739.168q-.467.057-.981.081c-.343.017-.681.024-1.013.024s-.612-.005-.837-.016v1.978a8.267,8.267,0,0,0,1.785.033,10.868,10.868,0,0,0,1.77-.306h.113a1.041,1.041,0,0,1,.506.153,1.242,1.242,0,0,1,.354.33.9.9,0,0,1,.16.443.914.914,0,0,1-.1.507.935.935,0,0,1-.2.265.653.653,0,0,1-.283.185,9.649,9.649,0,0,1-2.115.378,12.439,12.439,0,0,1-2.147-.04c-.2-.022-.426-.043-.668-.064a1.375,1.375,0,0,1-.635-.209,1.029,1.029,0,0,1-.5-.917v-6.852a1.061,1.061,0,0,1-.426-.732.848.848,0,0,1,.057-.418.8.8,0,0,1,.273-.346,1.751,1.751,0,0,1,.74-.345c.279-.059.552-.11.821-.153a10.967,10.967,0,0,1,1.673-.129q.836,0,1.705-.016a5.068,5.068,0,0,0,.6-.04,1.248,1.248,0,0,1,.595.056,1.017,1.017,0,0,1,.482.354,1.072,1.072,0,0,1,.209.515.886.886,0,0,1-.1.531.917.917,0,0,1-.474.4,2.1,2.1,0,0,1-.861.145c-.306-.01-.6-.016-.877-.016-.407,0-.815.006-1.222.016a11.725,11.725,0,0,0-1.222.1v2.236A10.41,10.41,0,0,0,1426.157,1459.418Z" transform="translate(-1330.691 -1449.129)" fill="#fff"/>
      <path id="Path_219" data-name="Path 219" d="M1390.144,1463.663q-.323.708-.6,1.408t-.523,1.423q.756-.016,1.327-.016t1.23-.016q-.305-.724-.651-1.44A11.1,11.1,0,0,0,1390.144,1463.663Z" transform="translate(-1355.668 -1455.353)" fill="#fff"/>
    </g>
  </g>
</svg>
