<svg xmlns="http://www.w3.org/2000/svg" width="91.818" height="63.936" viewBox="0 0 91.818 63.936">
  <g id="Group_638" data-name="Group 638" transform="translate(0 0)">
    <path id="Path_159" data-name="Path 159" d="M247.642,1421.817H250.3v7.911h4.755v2.285h-7.411Z" transform="translate(-229.225 -1394.058)" fill="#fff"/>
    <path id="Path_160" data-name="Path 160" d="M261.8,1421.817h8.125v2.128h-5.469v1.785h5v2.056h-5v1.942h5.612v2.285H261.8Z" transform="translate(-235.521 -1394.058)" fill="#fff"/>
    <path id="Path_161" data-name="Path 161" d="M279.8,1421.817h2.7l3.812,10.2h-2.77l-.629-1.828h-3.555l-.643,1.828H275.99Zm.171,6.4h2.313l-1.128-3.57h-.028Z" transform="translate(-241.826 -1394.057)" fill="#fff"/>
    <path id="Path_162" data-name="Path 162" d="M303.522,1431.842h-1.714l-.157-1.113a3.477,3.477,0,0,1-2.842,1.328,5.317,5.317,0,0,1,0-10.624c2.113,0,4.37,1.128,4.613,3.684h-2.656c-.085-.871-.943-1.4-2.013-1.4-1.714,0-2.371,1.514-2.371,3.027s.657,3.028,2.371,3.028c1.313,0,2.2-.615,2.341-1.543h-1.856v-1.97h4.284Z" transform="translate(-249.71 -1393.886)" fill="#fff"/>
    <path id="Path_163" data-name="Path 163" d="M321.627,1427.8c0,2.956-1.357,4.427-4.441,4.427s-4.441-1.47-4.441-4.427v-5.984H315.4v6.141c0,1.314.485,1.985,1.784,1.985s1.785-.672,1.785-1.985v-6.141h2.656Z" transform="translate(-258.164 -1394.057)" fill="#fff"/>
    <path id="Path_164" data-name="Path 164" d="M330.376,1421.817H338.5v2.128h-5.47v1.785h5v2.056h-5v1.942h5.612v2.285h-8.268Z" transform="translate(-266.001 -1394.058)" fill="#fff"/>
    <path id="Path_165" data-name="Path 165" d="M261.723,1398.319h2.656v7.911h4.755v2.284h-7.411Z" transform="translate(-235.484 -1383.613)" fill="#fff"/>
    <path id="Path_166" data-name="Path 166" d="M275.884,1398.319h8.125v2.127h-5.469v1.785h5v2.056h-5v1.942h5.612v2.284h-8.269Z" transform="translate(-241.779 -1383.613)" fill="#fff"/>
    <path id="Path_167" data-name="Path 167" d="M301.05,1408.342h-1.714l-.157-1.114a3.476,3.476,0,0,1-2.842,1.329,5.318,5.318,0,0,1,0-10.625c2.113,0,4.369,1.129,4.612,3.685h-2.656c-.086-.871-.942-1.4-2.014-1.4-1.713,0-2.37,1.513-2.37,3.026s.657,3.029,2.37,3.029c1.314,0,2.2-.614,2.342-1.543h-1.856v-1.97h4.284Z" transform="translate(-248.611 -1383.44)" fill="#fff"/>
    <path id="Path_168" data-name="Path 168" d="M314.735,1397.932c3.213,0,5.027,2.356,5.027,5.313s-1.814,5.313-5.027,5.313-5.027-2.357-5.027-5.313,1.813-5.313,5.027-5.313m0,8.34c1.714,0,2.37-1.513,2.37-3.027s-.657-3.027-2.37-3.027-2.37,1.514-2.37,3.027.657,3.027,2.37,3.027" transform="translate(-256.814 -1383.44)" fill="#fff"/>
    <path id="Path_169" data-name="Path 169" d="M328.506,1398.375a1.028,1.028,0,1,1,0,2.055,1.028,1.028,0,0,1,0-2.055m0,1.928a.9.9,0,1,0-.9-.9.9.9,0,0,0,.9.9m-.4-1.428c.052,0,.06-.007.163-.015s.147-.012.191-.012c.338,0,.506.131.506.382a.281.281,0,0,1-.2.294l-.016,0a.047.047,0,0,1,.02.019,3.126,3.126,0,0,1,.254.374h-.386c-.079-.147-.1-.187-.2-.354v.354h-.33Zm.37.494c.091,0,.143-.045.143-.128s-.048-.124-.139-.124a.162.162,0,0,0-.044,0v.242a.1.1,0,0,0,.04.005" transform="translate(-264.714 -1383.637)" fill="#fff"/>
    <path id="Path_170" data-name="Path 170" d="M256.629,1372.259h8.156l-.768,3.141h-3.909l-.386,1.65H263.8l-.71,2.91h-4.025l-.966,4.134h-4.214Z" transform="translate(-232 -1372.028)" fill="#fff"/>
    <path id="Path_171" data-name="Path 171" d="M273.308,1372.259h4.213l-2.744,11.835h-4.214Z" transform="translate(-239.414 -1372.028)" fill="#fff"/>
    <path id="Path_172" data-name="Path 172" d="M282.893,1372.146l.271-.036c1.352-.159,3.034-.265,3.962-.265a9.769,9.769,0,0,1,3.653.55,2.934,2.934,0,0,1,1.855,2.785,4.4,4.4,0,0,1-1.063,2.91,4.137,4.137,0,0,1-2.261,1.366l-.271.089a2.54,2.54,0,0,1,.213.177,27.823,27.823,0,0,1,2.145,4.188h-4.638c-.6-1.686-.773-2.129-1.565-4.046l-.928,4.046h-4.1Zm3.112,5.572a2.05,2.05,0,0,0,2.3-1.934c0-.6-.444-.9-1.314-.9a2.9,2.9,0,0,0-.657.07l-.638,2.733a1.637,1.637,0,0,0,.309.036" transform="translate(-243.683 -1371.844)" fill="#fff"/>
    <path id="Path_173" data-name="Path 173" d="M319.792,1372.259h10.223l-.714,3.426h-3.034l-2.01,8.409h-4.213l2.01-8.409h-3.288Z" transform="translate(-260.84 -1372.028)" fill="#fff"/>
    <path id="Path_174" data-name="Path 174" d="M331.381,1389.757a1.027,1.027,0,1,1,0,2.054,1.027,1.027,0,0,1,0-2.054m0,1.927a.9.9,0,1,0-.9-.9.9.9,0,0,0,.9.9m-.4-1.426c.052,0,.059-.008.163-.016s.147-.012.191-.012c.338,0,.505.132.505.382a.283.283,0,0,1-.2.294l-.016,0c.012.008.016.011.019.019a2.939,2.939,0,0,1,.254.374h-.385c-.079-.146-.1-.187-.2-.353v.353h-.329Zm.369.492c.092,0,.143-.044.143-.128s-.047-.123-.138-.123a.18.18,0,0,0-.044,0v.243a.139.139,0,0,0,.04,0" transform="translate(-265.992 -1379.807)" fill="#fff"/>
    <path id="Path_175" data-name="Path 175" d="M301.128,1383.608a13.246,13.246,0,0,0,3.69.549A6.468,6.468,0,0,0,308.8,1383a4.4,4.4,0,0,0,1.972-3.354,2.627,2.627,0,0,0-.967-2.041,9,9,0,0,0-2.01-1.17l-.83-.391c-.271-.142-.406-.284-.406-.444,0-.426.541-.745,1.275-.745a8.392,8.392,0,0,1,2.456.569l.863-3.2a10.433,10.433,0,0,0-2.759-.382c-3.44,0-6.088,1.88-6.088,4.311,0,1.278.851,2.183,2.976,3.176,1,.461,1.179.586,1.179.9,0,.479-.522.781-1.372.781a9.383,9.383,0,0,1-3.034-.71h0Z" transform="translate(-253 -1371.844)" fill="#fff"/>
    <g id="Group_637" data-name="Group 637" transform="translate(0 42.931)">
      <path id="Path_176" data-name="Path 176" d="M359.248,1462.893a1.307,1.307,0,0,0-.494-.585,2.977,2.977,0,0,0-1.368-.419,3.51,3.51,0,0,0-1.429.205l.007,3.532a10.858,10.858,0,0,0,1.382-.182,2.921,2.921,0,0,0,1.258-.588,2.1,2.1,0,0,0,.507-.587,1.771,1.771,0,0,0,.233-.688A1.428,1.428,0,0,0,359.248,1462.893Z" transform="translate(-277.372 -1454.798)" fill="#fff"/>
      <path id="Path_177" data-name="Path 177" d="M233.416,1464.316a2.5,2.5,0,0,0-.845-.63,3.022,3.022,0,0,0-.805-.249q-.4-.062-.82-.092c-.136,0-.264.005-.383.016s-.248.027-.383.048l.012,6.266a.707.707,0,0,0,.157-.016.526.526,0,0,1,.124-.016.344.344,0,0,0,.109-.016c.146-.021.266-.037.359-.047s.182-.025.266-.04.169-.034.258-.055.191-.047.306-.078a2.819,2.819,0,0,0,2.214-2.146,2.989,2.989,0,0,0,.154-1.046,3.17,3.17,0,0,0-.2-1.016A2.9,2.9,0,0,0,233.416,1464.316Z" transform="translate(-221.463 -1455.448)" fill="#fff"/>
      <path id="Path_178" data-name="Path 178" d="M302.613,1462.889a2.7,2.7,0,0,0-.978-.467,2.749,2.749,0,0,0-1.07-.052,1.93,1.93,0,0,0-.96.423,4.411,4.411,0,0,0-.959,1.119,5.056,5.056,0,0,0-.553,1.369,5.368,5.368,0,0,0-.169,1.25,3.358,3.358,0,0,0,.206,1.25,2.5,2.5,0,0,0,.509.8,2.537,2.537,0,0,0,.759.561,2.323,2.323,0,0,0,.9.225,2.1,2.1,0,0,0,.945-.182,2.757,2.757,0,0,0,.819-.541,4.251,4.251,0,0,0,.616-.744,4.707,4.707,0,0,0,.444-.868q.177-.461.318-.931a8.5,8.5,0,0,0,.1-1.219,2.665,2.665,0,0,0-.261-1.188A2.117,2.117,0,0,0,302.613,1462.889Z" transform="translate(-251.576 -1455.001)" fill="#fff"/>
      <path id="Path_179" data-name="Path 179" d="M302.806,1449.129H217.988a3.5,3.5,0,0,0-3.5,3.5v14a3.5,3.5,0,0,0,3.5,3.5h84.818a3.5,3.5,0,0,0,3.5-3.5v-14A3.5,3.5,0,0,0,302.806,1449.129ZM228.9,1461.422a4.826,4.826,0,0,1-1.464,2.362,5.072,5.072,0,0,1-1.186.783,5.4,5.4,0,0,1-1.227.394c-.431.084-.857.158-1.273.221l-.664.1a4.349,4.349,0,0,1-.679.056l-.109-.015a1.3,1.3,0,0,1-.7-.374,1.016,1.016,0,0,1-.29-.734l-.012-6.579a.943.943,0,0,1-.547-.07,1.07,1.07,0,0,1-.422-.312.818.818,0,0,1-.181-.454.674.674,0,0,1,.163-.492,1.868,1.868,0,0,1,.483-.446,3.25,3.25,0,0,1,.593-.3,5.261,5.261,0,0,1,.649-.2q.336-.079.649-.142a7.279,7.279,0,0,1,1.749-.074,5.675,5.675,0,0,1,1.658.38,5,5,0,0,1,1.432.873,4.292,4.292,0,0,1,1.057,1.4,4.369,4.369,0,0,1,.362,1.07,6.726,6.726,0,0,1,.127,1.117A4.968,4.968,0,0,1,228.9,1461.422Zm7.686,2.994a.878.878,0,0,1-.515.447,2.413,2.413,0,0,1-.664.142q-.383.032-.766.025c-.254-.005-.492-.015-.71-.03s-.387-.023-.5-.022h-.922a.9.9,0,0,1-.563-.179,1.018,1.018,0,0,1-.337-.429.907.907,0,0,1-.048-.531.991.991,0,0,1,.288-.516.9.9,0,0,1,.578-.252,4.189,4.189,0,0,1,.719,0l-.012-6.188c-.24,0-.464,0-.673-.007a1.134,1.134,0,0,1-.625-.225.834.834,0,0,1-.313-.4.787.787,0,0,1-.024-.453,1.131,1.131,0,0,1,.21-.43.918.918,0,0,1,.39-.3,1.147,1.147,0,0,1,.453-.094q.8,0,1.6-.01t1.617,0a.258.258,0,0,1,.148.047.806.806,0,0,0,.149.078,1.018,1.018,0,0,1,.485.577.844.844,0,0,1-.092.734.808.808,0,0,1-.273.289,1.058,1.058,0,0,1-.359.141,1.963,1.963,0,0,1-.4.04h-.391l.012,6.219c.083,0,.159,0,.226-.008s.144-.013.227-.024h.11a1.065,1.065,0,0,1,.672.241,1.029,1.029,0,0,1,.345.523A.875.875,0,0,1,236.586,1464.416Zm9.991-.971a2.649,2.649,0,0,1-.56.836,3.347,3.347,0,0,1-.523.431c-.182.119-.378.237-.585.353a2.862,2.862,0,0,1-1.343.331,5.076,5.076,0,0,1-1.438-.208,5.86,5.86,0,0,1-1.361-.591,5.586,5.586,0,0,1-1.1-.835l-.109-.156a1.223,1.223,0,0,1-.072-.593,1.036,1.036,0,0,1,.2-.508.874.874,0,0,1,.429-.3.841.841,0,0,1,.594.054,1.374,1.374,0,0,1,.509.367,1.537,1.537,0,0,0,.508.381,3.615,3.615,0,0,0,.829.3,3.406,3.406,0,0,0,.595.1c.2.015.4.022.609.022.156-.042.29-.085.4-.126a1.1,1.1,0,0,0,.376-.267.921.921,0,0,0,.3-.485,1.115,1.115,0,0,0,0-.554,1.234,1.234,0,0,0-.267-.5.961.961,0,0,0-.477-.3,7.82,7.82,0,0,0-1.095-.287q-.547-.1-1.062-.24a4.325,4.325,0,0,1-.979-.4,2.957,2.957,0,0,1-.853-.741,1.475,1.475,0,0,1-.283-.468c-.042-.135-.088-.306-.141-.516a1.971,1.971,0,0,1,.114-1.266,4.053,4.053,0,0,1,.646-.939,3.506,3.506,0,0,1,1.132-.838,4.556,4.556,0,0,1,1.327-.378,4.924,4.924,0,0,1,1.407.029,5.6,5.6,0,0,1,1.353.4.77.77,0,0,1,.478.483,1.076,1.076,0,0,1,.009.641.993.993,0,0,1-.358.516.771.771,0,0,1-.625.142c-.251-.052-.484-.106-.7-.164s-.438-.106-.657-.146a1.821,1.821,0,0,0-.539-.015,3.534,3.534,0,0,0-.547.1,4.574,4.574,0,0,0-.476.157,1.176,1.176,0,0,0-.329.18,1.528,1.528,0,0,0-.241.281.789.789,0,0,0-.132.391.451.451,0,0,0,.2.438,1.6,1.6,0,0,0,.5.249q.516.109,1.062.209a7.833,7.833,0,0,1,1.079.279,4.955,4.955,0,0,1,.993.459,2.628,2.628,0,0,1,.791.748,2.444,2.444,0,0,1,.517.921,2.794,2.794,0,0,1,.119,1.031A3.108,3.108,0,0,1,246.577,1463.445ZM256.846,1457a.935.935,0,0,1-.124.384.884.884,0,0,1-.273.289.9.9,0,0,1-.391.15.826.826,0,0,1-.554-.077.99.99,0,0,1-.313-.312c-.079-.125-.154-.248-.228-.367a.613.613,0,0,0-.312-.258.808.808,0,0,0-.188.016,6.915,6.915,0,0,0-1.069.385,5.261,5.261,0,0,0-1,.588,4.041,4.041,0,0,0-.8.8,2.976,2.976,0,0,0-.5,1.017,4,4,0,0,0-.138,1.36,3.162,3.162,0,0,0,.378,1.3,2.062,2.062,0,0,0,.5.625,2.207,2.207,0,0,0,.689.4,1.736,1.736,0,0,0,.767.092,1.658,1.658,0,0,0,.749-.275,2.6,2.6,0,0,0,.562-.54,7.362,7.362,0,0,0,.452-.65.955.955,0,0,1,.57-.291,1.049,1.049,0,0,1,.586.085.9.9,0,0,1,.415.4.93.93,0,0,1,.072.648,1.758,1.758,0,0,1-.358.7c-.177.214-.353.409-.53.587a3.914,3.914,0,0,1-1.349.948,3.711,3.711,0,0,1-1.5.292,3.619,3.619,0,0,1-1.485-.356,3.868,3.868,0,0,1-1.307-1.029,4.534,4.534,0,0,1-.579-.858,4.4,4.4,0,0,1-.362-.953,5.726,5.726,0,0,1-.175-1.531,5.555,5.555,0,0,1,.247-1.548,5.787,5.787,0,0,1,.662-1.416,4.391,4.391,0,0,1,1.053-1.134,7.208,7.208,0,0,1,.913-.6q.46-.25.975-.47.3-.126.609-.244a3.936,3.936,0,0,1,.641-.181,2.817,2.817,0,0,1,.656-.048,1.987,1.987,0,0,1,.641.14,2.122,2.122,0,0,1,.438.257,2.727,2.727,0,0,1,.407.374,2.908,2.908,0,0,1,.329.445,1.9,1.9,0,0,1,.2.453A1.2,1.2,0,0,1,256.846,1457Zm11.352,3.658a11.223,11.223,0,0,1-.677,1.714,6.516,6.516,0,0,1-1,1.494,4.838,4.838,0,0,1-1.381,1.065,3.878,3.878,0,0,1-1.8.41,6.347,6.347,0,0,1-1.039-.116,3.455,3.455,0,0,1-.743-.256,2.8,2.8,0,0,1-1.1-.6,3.828,3.828,0,0,1-.775-.959,4.814,4.814,0,0,1-.479-1.163,6.891,6.891,0,0,1-.214-1.2,6.637,6.637,0,0,1,.168-2.063,6.526,6.526,0,0,1,.793-1.931,5.621,5.621,0,0,1,1.373-1.519,4.441,4.441,0,0,1,1.889-.84,4.956,4.956,0,0,1,1.11-.064,3.927,3.927,0,0,1,1.095.217,5.819,5.819,0,0,1,.813.358,3.713,3.713,0,0,1,.719.514,3.926,3.926,0,0,1,.767.936,4.1,4.1,0,0,1,.456,1.109,5.855,5.855,0,0,1,.159,1.453A11.5,11.5,0,0,1,268.2,1460.66Zm10.968-4.263c-.125.2-.243.4-.358.6q-.42.813-.8,1.642t-.74,1.673q-.357.829-.669,1.65t-.622,1.666c-.072.167-.145.362-.217.587a2.286,2.286,0,0,1-.281.586.894.894,0,0,1-.413.344.869.869,0,0,1-.484.048,1.058,1.058,0,0,1-.453-.21.909.909,0,0,1-.305-.429q-.173-.437-.33-.859c-.1-.28-.215-.562-.33-.843s-.225-.578-.329-.859-.215-.562-.329-.843q-.332-.858-.659-1.71t-.644-1.71q-.2-.531-.369-.937a6.315,6.315,0,0,1-.291-.937.645.645,0,0,1,.1-.625,1.093,1.093,0,0,1,1.187-.369.772.772,0,0,1,.493.459q.659,1.562,1.233,3.155t1.17,3.2l.147-.367c.037-.089.066-.162.086-.219s.036-.1.046-.133a.361.361,0,0,1,.047-.094,5.992,5.992,0,0,1,.443-1.212q.288-.586.537-1.181a29.177,29.177,0,0,1,1.51-3.081l.063-.094a.936.936,0,0,1,.484-.423,1.035,1.035,0,0,1,.586-.048.933.933,0,0,1,.5.3.829.829,0,0,1,.2.609A1.362,1.362,0,0,1,279.166,1456.4Zm4.7,2.718a10.272,10.272,0,0,0,1.125,0q.562-.032,1.125-.08c.167-.011.333-.026.5-.048a2.1,2.1,0,0,1,.515,0,.78.78,0,0,1,.532.28,1.047,1.047,0,0,1,.227.523.961.961,0,0,1-.1.57.827.827,0,0,1-.453.407,2.811,2.811,0,0,1-.718.165c-.3.038-.619.064-.953.08s-.662.025-.984.025-.594,0-.813-.015l0,1.923a8.04,8.04,0,0,0,1.735.028,10.65,10.65,0,0,0,1.718-.3h.109a1.007,1.007,0,0,1,.492.147,1.2,1.2,0,0,1,.345.32.916.916,0,0,1-.138,1.179.636.636,0,0,1-.273.181,9.4,9.4,0,0,1-2.055.37,12.225,12.225,0,0,1-2.086-.035c-.2-.021-.414-.041-.649-.061a1.332,1.332,0,0,1-.617-.2,1,1,0,0,1-.487-.89l-.013-6.656a1.015,1.015,0,0,1-.282-.312,1,1,0,0,1-.133-.4.818.818,0,0,1,.054-.406.774.774,0,0,1,.264-.336,1.689,1.689,0,0,1,.718-.338c.27-.058.537-.108.8-.15a10.722,10.722,0,0,1,1.625-.129q.812,0,1.656-.018a4.8,4.8,0,0,0,.578-.041,1.224,1.224,0,0,1,.578.054.99.99,0,0,1,.47.343,1.051,1.051,0,0,1,.2.5.863.863,0,0,1-.1.516.9.9,0,0,1-.46.391,2.031,2.031,0,0,1-.836.142q-.446-.014-.851-.014-.595,0-1.188.018a11.424,11.424,0,0,0-1.188.1Zm14.841,5.589a1.129,1.129,0,0,1-.359.375.846.846,0,0,1-.461.135.88.88,0,0,1-.5-.172,3.512,3.512,0,0,1-.533-.515c-.168-.2-.329-.379-.486-.546q-.517-.561-1.009-1.131t-1.01-1.115a5.163,5.163,0,0,1-.632.087q-.321.024-.633.056l0,2.219v.109a.987.987,0,0,1-.327.642,1.334,1.334,0,0,1-.609.322.877.877,0,0,1-.6-.07.6.6,0,0,1-.289-.561q-.082-1.8-.086-3.728t-.007-3.836a.749.749,0,0,1-.375-.281.9.9,0,0,1-.149-.414,1.088,1.088,0,0,1,.053-.461,1.132,1.132,0,0,1,.234-.407,1.7,1.7,0,0,1,.468-.345,5.862,5.862,0,0,1,.648-.29c.235-.089.466-.165.695-.228s.422-.11.579-.141a4.8,4.8,0,0,1,1.984,0,4.585,4.585,0,0,1,1.759.755,3.344,3.344,0,0,1,1.135,1.42,3.017,3.017,0,0,1,.082,2,4.885,4.885,0,0,1-.233.625,4.045,4.045,0,0,1-.951,1.3,6.289,6.289,0,0,1-.78.579q.3.313.564.656a4.2,4.2,0,0,0,.594.624q.126.109.368.343t.469.5a5.514,5.514,0,0,1,.4.522.721.721,0,0,1,.157.43A1.133,1.133,0,0,1,298.707,1464.7Z" transform="translate(-214.488 -1449.129)" fill="#fff"/>
    </g>
  </g>
</svg>
