<svg xmlns="http://www.w3.org/2000/svg" width="82.453" height="64.26" viewBox="0 0 82.453 64.26">
  <g id="Group_642" data-name="Group 642" transform="translate(0 0)">
    <path id="Path_180" data-name="Path 180" d="M823.378,1421.817h2.67v7.951h4.779v2.3h-7.449Z" transform="translate(-809.682 -1393.917)" fill="#fff"/>
    <path id="Path_181" data-name="Path 181" d="M837.54,1421.817h8.167v2.139h-5.5v1.795h5.023v2.066H840.21v1.952h5.64v2.3h-8.31Z" transform="translate(-815.938 -1393.917)" fill="#fff"/>
    <path id="Path_182" data-name="Path 182" d="M855.558,1421.817h2.713l3.831,10.248h-2.784l-.632-1.837h-3.573l-.646,1.837h-2.742Zm.172,6.43h2.325l-1.134-3.588h-.028Z" transform="translate(-822.203 -1393.917)" fill="#fff"/>
    <path id="Path_183" data-name="Path 183" d="M879.307,1431.9h-1.723l-.158-1.119a3.493,3.493,0,0,1-2.856,1.334,5.344,5.344,0,0,1,0-10.678c2.124,0,4.392,1.134,4.636,3.7h-2.67c-.085-.875-.947-1.406-2.023-1.406-1.723,0-2.384,1.522-2.384,3.043s.661,3.043,2.384,3.043c1.32,0,2.21-.618,2.353-1.551H875v-1.98h4.306Z" transform="translate(-830.036 -1393.746)" fill="#fff"/>
    <path id="Path_184" data-name="Path 184" d="M897.408,1427.831c0,2.971-1.363,4.449-4.464,4.449s-4.463-1.478-4.463-4.449v-6.014h2.67v6.172c0,1.321.487,2,1.793,2s1.794-.675,1.794-2v-6.172h2.669Z" transform="translate(-838.437 -1393.917)" fill="#fff"/>
    <path id="Path_185" data-name="Path 185" d="M906.112,1421.817h8.167v2.139h-5.5v1.795h5.024v2.066h-5.024v1.952h5.64v2.3h-8.31Z" transform="translate(-846.225 -1393.917)" fill="#fff"/>
    <path id="Path_186" data-name="Path 186" d="M837.459,1398.319h2.669v7.951h4.779v2.3h-7.448Z" transform="translate(-815.901 -1383.538)" fill="#fff"/>
    <path id="Path_187" data-name="Path 187" d="M851.62,1398.319h8.167v2.139h-5.5v1.794h5.023v2.067H854.29v1.952h5.641v2.3H851.62Z" transform="translate(-822.156 -1383.538)" fill="#fff"/>
    <path id="Path_188" data-name="Path 188" d="M876.836,1408.4h-1.723l-.157-1.12a3.493,3.493,0,0,1-2.857,1.336,5.345,5.345,0,0,1,0-10.679c2.124,0,4.391,1.134,4.636,3.7h-2.669c-.087-.875-.947-1.406-2.024-1.406-1.722,0-2.383,1.521-2.383,3.042s.66,3.044,2.383,3.044c1.32,0,2.21-.617,2.354-1.55H872.53v-1.98h4.306Z" transform="translate(-828.945 -1383.367)" fill="#fff"/>
    <path id="Path_189" data-name="Path 189" d="M890.5,1397.932c3.229,0,5.053,2.368,5.053,5.34s-1.824,5.34-5.053,5.34-5.053-2.369-5.053-5.34,1.823-5.34,5.053-5.34m0,8.382c1.722,0,2.382-1.521,2.382-3.043s-.66-3.042-2.382-3.042-2.383,1.521-2.383,3.042.661,3.043,2.383,3.043" transform="translate(-837.096 -1383.367)" fill="#fff"/>
    <path id="Path_190" data-name="Path 190" d="M904.247,1398.375a1.033,1.033,0,1,1,0,2.066,1.033,1.033,0,0,1,0-2.066m0,1.938a.905.905,0,1,0-.9-.907.9.9,0,0,0,.9.907m-.4-1.435c.053,0,.06-.007.164-.016s.148-.012.192-.012c.34,0,.508.132.508.383a.283.283,0,0,1-.2.3l-.016,0a.049.049,0,0,1,.02.019,3.068,3.068,0,0,1,.256.376h-.388c-.08-.148-.1-.188-.2-.356v.356h-.332Zm.373.5c.091,0,.144-.045.144-.128s-.048-.124-.14-.124a.166.166,0,0,0-.045,0v.244a.127.127,0,0,0,.041,0" transform="translate(-844.946 -1383.563)" fill="#fff"/>
    <path id="Path_191" data-name="Path 191" d="M832.379,1372.259h8.2l-.772,3.157h-3.929l-.388,1.658h4.1l-.714,2.924h-4.045l-.971,4.156H829.62Z" transform="translate(-812.439 -1372.027)" fill="#fff"/>
    <path id="Path_192" data-name="Path 192" d="M849.057,1372.259h4.235l-2.758,11.895H846.3Z" transform="translate(-819.806 -1372.027)" fill="#fff"/>
    <path id="Path_193" data-name="Path 193" d="M858.642,1372.147l.272-.036c1.36-.16,3.05-.267,3.982-.267a9.812,9.812,0,0,1,3.671.553,2.947,2.947,0,0,1,1.865,2.8,4.422,4.422,0,0,1-1.069,2.925,4.157,4.157,0,0,1-2.273,1.373l-.272.089c.117.089.156.125.214.178a27.984,27.984,0,0,1,2.155,4.209h-4.662c-.6-1.695-.777-2.14-1.573-4.066l-.932,4.066H855.9Zm3.127,5.6a2.06,2.06,0,0,0,2.312-1.944c0-.607-.447-.91-1.321-.91a2.9,2.9,0,0,0-.66.071l-.642,2.746a1.639,1.639,0,0,0,.31.036" transform="translate(-824.048 -1371.844)" fill="#fff"/>
    <path id="Path_194" data-name="Path 194" d="M895.533,1372.259h10.275l-.717,3.443h-3.05l-2.021,8.452h-4.234l2.02-8.452h-3.3Z" transform="translate(-841.096 -1372.027)" fill="#fff"/>
    <path id="Path_195" data-name="Path 195" d="M907.122,1389.757a1.032,1.032,0,1,1,0,2.065,1.032,1.032,0,0,1,0-2.065m0,1.937a.9.9,0,1,0-.9-.906.9.9,0,0,0,.9.906m-.4-1.433c.051,0,.059-.008.164-.016s.147-.012.191-.012c.34,0,.508.132.508.384a.285.285,0,0,1-.2.3l-.016,0c.012.009.016.012.02.02a3.024,3.024,0,0,1,.255.375h-.387c-.08-.147-.1-.188-.2-.355v.355h-.331Zm.371.5c.092,0,.143-.044.143-.128s-.048-.124-.139-.124a.167.167,0,0,0-.044,0v.244a.139.139,0,0,0,.04,0" transform="translate(-846.216 -1379.756)" fill="#fff"/>
    <path id="Path_196" data-name="Path 196" d="M876.864,1383.668a13.325,13.325,0,0,0,3.709.552,6.5,6.5,0,0,0,4-1.159,4.425,4.425,0,0,0,1.982-3.371,2.638,2.638,0,0,0-.972-2.051,9.058,9.058,0,0,0-2.02-1.176l-.835-.393c-.272-.143-.408-.286-.408-.446,0-.428.544-.749,1.282-.749a8.427,8.427,0,0,1,2.468.572l.868-3.22a10.511,10.511,0,0,0-2.773-.383c-3.458,0-6.119,1.89-6.119,4.333,0,1.284.854,2.194,2.991,3.193,1.01.463,1.185.588,1.185.909,0,.482-.524.785-1.379.785a9.42,9.42,0,0,1-3.049-.713h0Z" transform="translate(-833.306 -1371.844)" fill="#fff"/>
    <g id="Group_641" data-name="Group 641" transform="translate(0 43.149)">
      <path id="Path_197" data-name="Path 197" d="M908.368,1462.954a1.317,1.317,0,0,0-.5-.589,3,3,0,0,0-1.375-.424,3.515,3.515,0,0,0-1.437.2v3.549a11.053,11.053,0,0,0,1.39-.181,2.93,2.93,0,0,0,1.264-.589,2.1,2.1,0,0,0,.51-.589,1.761,1.761,0,0,0,.236-.691A1.449,1.449,0,0,0,908.368,1462.954Z" transform="translate(-845.761 -1454.785)" fill="#fff"/>
      <path id="Path_198" data-name="Path 198" d="M853.569,1462.276a2.478,2.478,0,0,0-1.343-.157,5.079,5.079,0,0,0-1.327.409v3.424a6.029,6.029,0,0,0,1.507.062,3.062,3.062,0,0,0,1.414-.471,1.559,1.559,0,0,0,.629-.754,2.021,2.021,0,0,0,.125-.927,2.1,2.1,0,0,0-.315-.9A2,2,0,0,0,853.569,1462.276Z" transform="translate(-821.838 -1454.852)" fill="#fff"/>
      <path id="Path_199" data-name="Path 199" d="M877.782,1449.129H802.365a3.518,3.518,0,0,0-3.518,3.518v14.076a3.518,3.518,0,0,0,3.518,3.518h75.417a3.518,3.518,0,0,0,3.519-3.518v-14.076A3.518,3.518,0,0,0,877.782,1449.129Zm-68.845,10.046q.565-.031,1.131-.079c.167-.01.335-.026.5-.047a2.188,2.188,0,0,1,.518,0,.791.791,0,0,1,.534.283,1.053,1.053,0,0,1,.228.526.965.965,0,0,1-.1.573.835.835,0,0,1-.456.408,2.841,2.841,0,0,1-.722.165q-.456.055-.958.079t-.989.024q-.487,0-.817-.016v1.932a8.07,8.07,0,0,0,1.743.032,10.718,10.718,0,0,0,1.727-.3h.11a1.013,1.013,0,0,1,.494.149,1.2,1.2,0,0,1,.346.322.887.887,0,0,1,.055.926.9.9,0,0,1-.2.259.63.63,0,0,1-.275.181,9.44,9.44,0,0,1-2.065.369,12.134,12.134,0,0,1-2.1-.039c-.2-.021-.417-.042-.653-.063a1.338,1.338,0,0,1-.62-.2,1,1,0,0,1-.487-.895v-6.691a1.031,1.031,0,0,1-.417-.715.826.826,0,0,1,.055-.408.786.786,0,0,1,.266-.338,1.716,1.716,0,0,1,.723-.338q.408-.086.8-.149a10.735,10.735,0,0,1,1.633-.126q.816,0,1.665-.016a5.107,5.107,0,0,0,.581-.039,1.223,1.223,0,0,1,.581.055,1,1,0,0,1,.471.346,1.043,1.043,0,0,1,.2.5.865.865,0,0,1-.1.518.9.9,0,0,1-.463.393,2.049,2.049,0,0,1-.841.141q-.447-.016-.856-.015-.6,0-1.194.015a11.465,11.465,0,0,0-1.193.094v2.183A10.335,10.335,0,0,0,808.937,1459.175Zm12.438,1.13q.244.3.534.668t.59.785q.3.416.565.8t.464.722a3.623,3.623,0,0,1,.275.558.946.946,0,0,1,.008.668,1.067,1.067,0,0,1-.361.487.907.907,0,0,1-1.186-.087,1.89,1.89,0,0,1-.44-.613,5.505,5.505,0,0,0-.377-.675q-.394-.6-.817-1.155t-.88-1.107q-.439.55-.9,1.076l-.92,1.045q-.125.142-.306.377t-.385.479q-.2.244-.408.448a1.1,1.1,0,0,1-.377.267.9.9,0,0,1-.581.054.964.964,0,0,1-.73-.73.9.9,0,0,1,.055-.581,1.493,1.493,0,0,1,.368-.542,6.662,6.662,0,0,0,.464-.479q.628-.739,1.256-1.468t1.256-1.485q-.549-.707-1.122-1.39t-1.218-1.312a2.481,2.481,0,0,0-.2-.165,3.184,3.184,0,0,1-.275-.236c-.094-.089-.183-.178-.267-.267a1.638,1.638,0,0,1-.2-.259.974.974,0,0,1-.11-.613,1.046,1.046,0,0,1,.243-.541.871.871,0,0,1,.5-.291.881.881,0,0,1,.628.126,3.239,3.239,0,0,1,.487.384q.22.212.439.432.629.612,1.194,1.264t1.115,1.343q.22-.266.44-.526c.147-.173.288-.348.424-.526q.424-.566.817-1.123t.77-1.154a.918.918,0,0,1,.612-.3,1.053,1.053,0,0,1,.6.141.969.969,0,0,1,.4.463.89.89,0,0,1-.008.683,2.613,2.613,0,0,1-.275.5c-.109.157-.218.309-.322.456q-.518.785-1.076,1.507t-1.139,1.43Q821.132,1460.008,821.375,1460.306Zm11.762-.361a3.993,3.993,0,0,1-1.013,1.272,4.075,4.075,0,0,1-1.531.8,4.678,4.678,0,0,1-1.343.18,12.479,12.479,0,0,1-1.342-.087v1.524c0,.116.005.236.016.361a2.942,2.942,0,0,1,.007.377,2.122,2.122,0,0,1-.047.369.93.93,0,0,1-.149.338.774.774,0,0,1-.487.385.967.967,0,0,1-.573-.031,1.077,1.077,0,0,1-.471-.345.908.908,0,0,1-.2-.589v-2.827a1.083,1.083,0,0,1-.44-.392.826.826,0,0,1-.126-.48.97.97,0,0,1,.157-.464,1.094,1.094,0,0,1,.393-.361v-4.021l.016-.094a1.139,1.139,0,0,1,.157-.337,1.36,1.36,0,0,1,.259-.291.93.93,0,0,1,.33-.181.6.6,0,0,1,.369.008,9.633,9.633,0,0,1,1.186-.392,5.679,5.679,0,0,1,1.209-.18,4.607,4.607,0,0,1,1.193.109,3.471,3.471,0,0,1,1.14.495,3.218,3.218,0,0,1,.777.707,4.444,4.444,0,0,1,.557.9,3.753,3.753,0,0,1-.047,3.251Zm9.093,4.736a1.213,1.213,0,0,1-.6.369,1.807,1.807,0,0,1-.44.054q-.282.008-.785.008h-1.272q-.77,0-1.9.016-.284.016-.582.016a.739.739,0,0,1-.518-.2.906.906,0,0,1-.275-.479,3.453,3.453,0,0,1-.11-.675q-.023-.354-.016-.707t.007-.589q0-.472.008-1.084t.016-1.248q.008-.636.008-1.248v-1.084q0-.832.015-1.342a5.283,5.283,0,0,1,.071-.8.843.843,0,0,1,.18-.424,1.021,1.021,0,0,1,.346-.228.839.839,0,0,1,.416-.055,1.175,1.175,0,0,1,.424.126.953.953,0,0,1,.33.283.663.663,0,0,1,.133.4q.032,1.885,0,3.738t-.031,3.707q.99,0,1.971-.024t1.987-.055l.094.031a1.4,1.4,0,0,1,.551.44.886.886,0,0,1,.18.542A.849.849,0,0,1,842.231,1464.68ZM853.3,1460.7a11.333,11.333,0,0,1-.683,1.72,6.53,6.53,0,0,1-1.013,1.5,4.841,4.841,0,0,1-1.39,1.068,3.9,3.9,0,0,1-1.815.409,6.423,6.423,0,0,1-1.045-.118,3.57,3.57,0,0,1-.746-.259,2.817,2.817,0,0,1-1.106-.605,3.838,3.838,0,0,1-.778-.966,4.836,4.836,0,0,1-.479-1.17,6.923,6.923,0,0,1-.212-1.2,6.663,6.663,0,0,1,.173-2.074,6.538,6.538,0,0,1,.8-1.939,5.646,5.646,0,0,1,1.382-1.524,4.455,4.455,0,0,1,1.9-.84,4.962,4.962,0,0,1,1.115-.063,3.933,3.933,0,0,1,1.1.22,5.811,5.811,0,0,1,.817.361,3.692,3.692,0,0,1,.722.518,3.957,3.957,0,0,1,.77.942,4.094,4.094,0,0,1,.455,1.115,5.816,5.816,0,0,1,.157,1.461A11.169,11.169,0,0,1,853.3,1460.7Zm10.491,4.123a1.139,1.139,0,0,1-.361.377.854.854,0,0,1-.463.133.882.882,0,0,1-.5-.172,3.577,3.577,0,0,1-.535-.519q-.251-.3-.487-.549-.519-.565-1.012-1.139t-1.013-1.123a5.279,5.279,0,0,1-.636.087q-.322.024-.636.055v2.341a.987.987,0,0,1-.33.644,1.339,1.339,0,0,1-.613.322.882.882,0,0,1-.6-.071.6.6,0,0,1-.29-.566q-.08-1.806-.079-3.746v-3.856a.748.748,0,0,1-.377-.282.909.909,0,0,1-.15-.417,1.092,1.092,0,0,1,.055-.463,1.126,1.126,0,0,1,.236-.408,1.7,1.7,0,0,1,.471-.346,5.956,5.956,0,0,1,.651-.291c.236-.088.468-.165.7-.228s.424-.109.582-.141a4.813,4.813,0,0,1,1.994.008,4.6,4.6,0,0,1,1.766.761,3.362,3.362,0,0,1,1.139,1.429,3.036,3.036,0,0,1,.078,2.011,5.147,5.147,0,0,1-.235.628,4.086,4.086,0,0,1-.958,1.3,6.334,6.334,0,0,1-.786.581q.3.314.566.659a4.2,4.2,0,0,0,.6.628q.126.111.369.346t.471.5a5.56,5.56,0,0,1,.4.526.72.72,0,0,1,.157.432A1.135,1.135,0,0,1,863.794,1464.822Zm6.062-5.646q.565-.031,1.131-.079c.167-.01.335-.026.5-.047a2.194,2.194,0,0,1,.519,0,.793.793,0,0,1,.534.283,1.059,1.059,0,0,1,.228.526.969.969,0,0,1-.1.573.831.831,0,0,1-.455.408,2.848,2.848,0,0,1-.723.165q-.456.055-.958.079t-.989.024q-.487,0-.817-.016v1.932a8.069,8.069,0,0,0,1.743.032,10.711,10.711,0,0,0,1.728-.3h.11a1.014,1.014,0,0,1,.495.149,1.209,1.209,0,0,1,.346.322.921.921,0,0,1-.142,1.185.624.624,0,0,1-.275.181,9.43,9.43,0,0,1-2.065.369,12.134,12.134,0,0,1-2.1-.039c-.2-.021-.416-.042-.652-.063a1.343,1.343,0,0,1-.62-.2,1,1,0,0,1-.487-.895v-6.691a1.028,1.028,0,0,1-.416-.715.833.833,0,0,1,.055-.408.794.794,0,0,1,.267-.338,1.716,1.716,0,0,1,.723-.338c.271-.057.539-.107.8-.149a10.746,10.746,0,0,1,1.634-.126q.817,0,1.664-.016a5.111,5.111,0,0,0,.582-.039,1.221,1.221,0,0,1,.581.055,1,1,0,0,1,.471.346,1.038,1.038,0,0,1,.2.5.861.861,0,0,1-.1.518.9.9,0,0,1-.463.393,2.047,2.047,0,0,1-.84.141q-.448-.016-.856-.015-.6,0-1.193.015a11.477,11.477,0,0,0-1.194.094v2.183A10.344,10.344,0,0,0,869.856,1459.175Z" transform="translate(-798.847 -1449.129)" fill="#fff"/>
      <path id="Path_200" data-name="Path 200" d="M887.854,1462.844a2.721,2.721,0,0,0-.982-.471,2.766,2.766,0,0,0-1.076-.055,1.954,1.954,0,0,0-.966.424,4.44,4.44,0,0,0-.965,1.123,5.1,5.1,0,0,0-.558,1.375,5.431,5.431,0,0,0-.172,1.256,3.37,3.37,0,0,0,.2,1.256,2.511,2.511,0,0,0,.511.8,2.55,2.55,0,0,0,.762.565,2.326,2.326,0,0,0,.9.228,2.093,2.093,0,0,0,.95-.181,2.774,2.774,0,0,0,.825-.542,4.194,4.194,0,0,0,.62-.746,4.734,4.734,0,0,0,.448-.872q.18-.463.321-.935a8.533,8.533,0,0,0,.1-1.225,2.693,2.693,0,0,0-.259-1.194A2.157,2.157,0,0,0,887.854,1462.844Z" transform="translate(-836.075 -1454.942)" fill="#fff"/>
    </g>
  </g>
</svg>
